PathFileType	4	(X/Y/Z)	 s03c0402.trc
DataRate	CameraRate	NumFrames	NumMarkers	Units	OrigDataRate	OrigDataStartFrame	OrigNumFrames
200	200	4	50	mm	200	1	2000
Frame#	Time	racr			lacr			c7			jug			rlel			rdr			llel			ldr			s2			lic			ric			lasi			rasi			rpsi			lpsi			rgt			lgt			rth1			rth2			rth3			rth4			rlfc			rmfc			rsh1			rsh2			rsh3			rsh4			rlmal			rcal			rtoe			rmt5			rmt1			lth1			lth2			lth4			lth3			llfc			lmfc			lsh1			lsh2			lsh3			lsh4			llmal			lcal			ltoe			lmt1			lmt5			SBIKE			LBIKE			RBIKE			
		X1	Y1	Z1	X2	Y2	Z2	X3	Y3	Z3	X4	Y4	Z4	X5	Y5	Z5	X6	Y6	Z6	X7	Y7	Z7	X8	Y8	Z8	X9	Y9	Z9	X10	Y10	Z10	X11	Y11	Z11	X12	Y12	Z12	X13	Y13	Z13	X14	Y14	Z14	X15	Y15	Z15	X16	Y16	Z16	X17	Y17	Z17	X18	Y18	Z18	X19	Y19	Z19	X20	Y20	Z20	X21	Y21	Z21	X22	Y22	Z22	X23	Y23	Z23	X24	Y24	Z24	X25	Y25	Z25	X26	Y26	Z26	X27	Y27	Z27	X28	Y28	Z28	X29	Y29	Z29	X30	Y30	Z30	X31	Y31	Z31	X32	Y32	Z32	X33	Y33	Z33	X34	Y34	Z34	X35	Y35	Z35	X36	Y36	Z36	X37	Y37	Z37	X38	Y38	Z38	X39	Y39	Z39	X40	Y40	Z40	X41	Y41	Z41	X42	Y42	Z42	X43	Y43	Z43	X44	Y44	Z44	X45	Y45	Z45	X46	Y46	Z46	X47	Y47	Z47	X48	Y48	Z48	X49	Y49	Z49	X50	Y50	Z50	
1	0.0050	488.150525	1453.178957	-70.913593	486.582980	1483.372973	-375.118165	405.742922	1531.098096	-220.988875	454.670284	1366.215072	-222.213712	523.040190	1184.715992	31.964539	735.421742	984.809286	-6.230825	543.498454	1214.126891	-454.062701	737.473638	980.610036	-430.119548	-93.958353	1219.073407	-240.147437	98.600304	1220.737885	-412.567822	83.614404	1240.304503	-53.083910	108.598091	1142.946375	-382.183672	96.088519	1175.103172	-95.319482	-63.298394	1266.476994	-195.386955	-54.174702	1263.024052	-279.540814	16.843076	1161.461629	-31.947323	22.159925	1109.828486	-436.491419	141.494003	1069.623570	-19.556121	230.270236	1063.699135	-18.445158	303.670382	1018.242033	-22.310049	242.537038	1096.359719	-30.792312	418.063788	952.020902	-43.186487	424.115993	940.677298	-169.653698	357.405645	798.634535	-26.830431	345.373649	711.897574	-43.338604	288.521646	643.585345	-49.155597	371.338490	702.787324	-69.417782	229.697549	524.836065	-73.276555	165.090967	477.827208	-117.418879	475.323042	478.264691	-106.765436	353.916112	460.207966	-41.769574	382.935426	477.417796	-155.596049	90.202205	962.099072	-452.149407	146.829189	896.258837	-452.041631	179.521828	912.155575	-447.059727	164.195427	808.680897	-439.461647	235.588670	700.778964	-419.727946	232.713845	690.473704	-296.243918	139.951499	556.389187	-445.212268	120.954235	475.150320	-428.207120	59.465799	408.185617	-424.611719	147.820372	463.134881	-402.062704	-5.963562	296.542903	-404.421495	-77.865185	250.892219	-358.969572	231.415927	229.586137	-355.220837	136.872277	229.221689	-312.738251	111.865281	213.293835	-430.353248	-217.457419	945.565657	-232.576340	-7.763531	83.207513	-436.232243	-13.986844	80.729599	-36.358825	
2	0.0100	488.207816	1453.187287	-70.854225	486.606259	1483.339892	-375.106899	405.714297	1531.107001	-220.914268	454.644879	1366.185382	-222.142749	523.034497	1184.713656	32.018177	735.419964	984.791882	-6.230555	543.403348	1215.219805	-456.285611	737.489396	980.612742	-430.171981	-93.951286	1219.038791	-240.153891	98.642732	1220.726372	-412.551579	83.622731	1240.283459	-53.079317	108.601030	1142.948782	-382.191790	96.084691	1175.140761	-95.281204	-63.282689	1266.478317	-195.390865	-54.178725	1263.049459	-279.544012	16.823966	1161.459232	-31.943068	22.154808	1109.821032	-436.493620	141.487565	1069.654300	-19.535894	230.250276	1063.747844	-18.428649	303.657323	1018.301452	-22.282933	242.543772	1096.414813	-30.753307	418.067454	952.091269	-43.141377	424.340432	940.518224	-170.168253	357.385800	798.706765	-26.818667	345.333007	711.999200	-43.326356	288.470913	643.676616	-49.144184	371.315193	702.864922	-69.401370	229.620617	524.944291	-73.267177	165.003377	477.937264	-117.409864	475.253460	478.352769	-106.768179	353.836961	460.309945	-41.776485	382.844207	477.525425	-155.589235	90.172377	962.036002	-452.114679	146.760586	896.177493	-452.002644	179.477293	912.052456	-447.002405	164.117194	808.581853	-439.349908	235.476248	700.716097	-419.640584	232.607980	690.386463	-296.152714	139.882623	556.274377	-445.156734	120.904634	475.041651	-428.156595	59.465980	408.071148	-424.586620	147.781085	463.006227	-401.997650	-5.957107	296.368448	-404.412831	-77.828061	250.699059	-358.976687	231.350224	229.578714	-355.292831	136.480712	230.376304	-314.081242	111.918645	213.217913	-430.357709	-217.450242	945.568368	-232.583603	-7.758784	83.259630	-436.208310	-13.989616	80.723808	-36.364971	
3	0.0150	488.203923	1453.204383	-70.811252	486.629411	1483.324021	-375.097413	405.733708	1531.125314	-220.922714	454.674720	1366.191012	-222.093984	523.024295	1184.713073	32.084289	735.427959	984.807320	-6.209946	543.428875	1215.212561	-456.290161	737.517200	980.630895	-430.209061	-93.933399	1219.048020	-240.160877	98.684478	1220.700689	-412.532781	83.636086	1240.308256	-53.068722	108.616544	1142.918021	-382.165678	96.116273	1175.141168	-95.318352	-63.282424	1266.487408	-195.395837	-54.168482	1263.043657	-279.555637	16.798890	1161.484711	-31.930854	22.162770	1109.795725	-436.459403	141.481367	1069.686465	-19.507080	230.238802	1063.796009	-18.395125	303.660687	1018.348986	-22.234012	242.517699	1096.453298	-30.721847	418.072316	952.148141	-43.108931	424.275982	940.705154	-169.701260	357.383242	798.776214	-26.790791	345.311375	712.045996	-43.299273	288.416996	643.743278	-49.130879	371.261622	702.948158	-69.402061	229.543954	525.057732	-73.248254	164.943706	478.039164	-117.406341	475.176785	478.444434	-106.750721	353.742749	460.396359	-41.763007	382.752738	477.631536	-155.578475	90.128079	961.989160	-452.068653	146.711317	896.118086	-451.946430	179.417201	911.983380	-446.946582	164.027806	808.513019	-439.279638	235.370656	700.649863	-419.581914	232.480332	690.292179	-296.065844	139.823164	556.198069	-445.104135	120.859497	474.952228	-428.119014	59.445686	407.906331	-424.573494	147.745915	462.904460	-401.930422	-5.945272	296.197578	-404.389480	-77.784236	250.484620	-358.963105	231.404510	229.545875	-355.280754	136.529937	230.282981	-314.066550	111.975918	213.130595	-430.341499	-217.451806	945.568324	-232.580976	-7.754455	83.250782	-436.197505	-13.994336	80.704024	-36.377908	
4	0.0200	488.227858	1453.220949	-70.755874	486.641623	1483.347302	-375.065455	405.729593	1531.117818	-220.882667	452.248719	1366.103045	-223.491352	523.036455	1184.715729	32.141374	735.426213	984.791621	-6.182237	544.431068	1214.356248	-454.012123	737.538368	980.632050	-430.258784	-93.238686	1219.250409	-240.341738	99.210576	1221.103333	-413.736549	84.012254	1240.286375	-53.048195	106.112816	1140.631650	-377.204489	96.086674	1175.178776	-95.285688	-63.288190	1266.491853	-195.392980	-54.163626	1263.073571	-279.571263	16.787934	1161.506083	-31.908170	21.932426	1109.810722	-436.777055	141.354950	1069.678214	-19.469102	230.244261	1063.823953	-18.359749	303.709667	1018.337977	-22.099635	241.727498	1096.949590	-31.608166	417.966618	952.004007	-42.900600	425.094453	939.726226	-167.414907	357.338337	798.788867	-26.734912	345.267661	712.109011	-43.260303	288.355570	643.806088	-49.115681	372.676802	703.935204	-68.961358	229.450261	525.145140	-73.236622	164.871355	478.114900	-117.410676	475.043297	478.511208	-106.613883	353.669738	460.474449	-41.759295	382.659681	477.714136	-155.556262	90.074904	961.917044	-452.087350	147.184548	895.177496	-450.132897	179.816183	911.354437	-445.742499	163.947936	808.437024	-439.200164	235.817592	699.971568	-418.312037	232.328920	690.225141	-295.994305	139.893524	554.920991	-443.052421	121.097554	473.872786	-426.212239	59.438957	407.777110	-424.556344	148.059625	461.944709	-400.148806	-6.403922	297.076056	-405.885068	-77.746567	250.284006	-358.960826	231.439079	229.518168	-355.276002	137.027681	228.999192	-312.693808	112.627485	211.511704	-428.223611	-217.500917	945.587830	-232.900882	-7.740147	83.260390	-436.205400	-13.984544	80.716958	-36.364092	
